<?xml version="1.0" encoding="utf-8"?>
<!-- Generator: Adobe Illustrator 16.0.0, SVG Export Plug-In . SVG Version: 6.00 Build 0)  -->
<!DOCTYPE svg PUBLIC "-//W3C//DTD SVG 1.1//EN" "http://www.w3.org/Graphics/SVG/1.1/DTD/svg11.dtd">
<svg version="1.1" id="torex" xmlns="http://www.w3.org/2000/svg" xmlns:xlink="http://www.w3.org/1999/xlink" x="0px" y="0px"
	 width="951px" height="581.25px" viewBox="0 0 951 581.25" enable-background="new 0 0 951 581.25" xml:space="preserve">
<g>
	<polygon fill="#FFA800" stroke="#000000" stroke-width="1.689" stroke-linejoin="round" points="867.5,32.54 873.688,32.54 
		860.75,45.479 854.563,45.479 802.438,45.479 756.5,45.479 756.5,60.104 805.438,59.729 854,59.729 859.25,65.165 913.438,76.979 
		914.188,86.354 868.063,85.415 850.625,93.104 864.313,158.354 868.063,177.854 875.375,187.042 886.625,198.292 911.188,214.979 
		914,226.042 914,240.667 914,316.417 919.063,379.417 926.938,392.729 932.563,420.854 926.938,433.229 886.625,441.104 
		854.563,441.104 620,427.604 620,406.229 607.25,392.729 573.5,392.729 560.75,406.229 561.125,421.979 551.75,421.979 
		514.625,421.979 487.25,421.979 487.25,406.417 440.75,411.479 439.625,418.042 433.439,406.979 428.189,395.542 425.375,386.167 
		410.939,386.167 209.564,329.354 222.314,316.417 229.064,288.104 248.189,294.667 261.875,288.104 261.875,275.167 242,267.854 
		222.314,260.542 183.125,246.479 145.439,233.917 104.189,226.042 83.939,208.229 58.814,191.354 53.189,191.354 26.75,191.354 
		6.875,191.354 13.25,163.792 19.814,136.604 19.814,122.354 38.939,115.04 144.314,80.354 150.125,80.354 398,80.354 
		639.688,80.354 658.813,53.54 672.5,32.54 841.625,32.54 	"/>
	<polygon stroke="#000000" stroke-width="1.689" stroke-linejoin="round" points="106.439,225.104 263.564,280.792 573.688,280.792 
		616.25,225.104 	"/>
	<polygon fill="#A80000" stroke="#000000" stroke-width="1.689" stroke-linejoin="round" points="616.063,224.542 621.125,224.542 
		669.688,118.604 670.063,263.167 631.25,263.729 611.563,278.917 597.875,302.917 597.875,336.292 580.438,336.292 
		580.438,280.792 491,280.792 470.939,295.229 231.314,295.229 108.125,225.667 264.689,272.354 592.063,257.167 	"/>
	<polygon stroke="#A89187" stroke-width="1.689" stroke-linejoin="round" points="866.563,441.667 864.688,431.729 863.188,419.729 
		860.75,407.917 857,396.292 852.313,384.854 846.875,374.167 840.5,363.667 833.188,354.104 824.938,345.104 815.938,336.854 
		806.375,329.542 796.25,322.792 785.563,317.167 774.313,312.667 762.688,308.729 751.25,306.292 739.063,304.792 727.25,304.229 
		715.063,304.792 703.063,306.292 691.25,308.729 680,312.667 668.563,317.167 657.875,322.792 647.75,329.542 638.188,336.854 
		629.563,345.104 621.125,354.104 613.813,363.667 607.438,374.167 601.813,384.854 835.438,441.667 	"/>
	<polygon fill="#A80000" stroke="#000000" stroke-width="1.689" stroke-linejoin="round" points="144.875,89.354 637.625,89.354 
		643.813,89.354 650.375,89.354 662.938,74.354 662.938,80.915 650.375,95.915 142.814,95.915 26.189,132.104 26.75,126.854 	"/>
	<polygon fill="#A80000" stroke="#000000" stroke-width="1.689" stroke-linejoin="round" points="635.375,94.229 635.375,172.792 
		641.938,161.167 641.938,94.979 	"/>
	
		<line fill="none" stroke="#000000" stroke-width="1.689" stroke-linejoin="round" x1="650.938" y1="89.165" x2="650.938" y2="135.854"/>
	<polygon fill="#FFA800" stroke="#000000" stroke-width="1.689" stroke-linejoin="round" points="644.75,73.229 644.75,171.292 
		654.5,151.417 654.5,83.54 657.688,80.165 657.688,56.354 	"/>
	
		<rect x="140.564" y="95.915" fill="#A80000" stroke="#000000" stroke-width="1.689" stroke-linejoin="round" width="6.561" height="116.252"/>
	
		<rect x="308.75" y="95.915" fill="#A80000" stroke="#000000" stroke-width="1.689" stroke-linejoin="round" width="6.375" height="115.877"/>
	
		<rect x="485" y="95.354" fill="#A80000" stroke="#000000" stroke-width="1.689" stroke-linejoin="round" width="6.188" height="116.25"/>
	<polygon fill="#A80000" stroke="#000000" stroke-width="1.689" stroke-linejoin="round" points="62,119.729 62,181.792 
		68.375,185.917 68.375,117.479 	"/>
	<polyline fill="none" stroke="#FFFF54" stroke-width="1.689" stroke-linejoin="round" points="60.875,181.792 105.689,213.479 
		361.625,213.479 	"/>
	
		<line fill="none" stroke="#FFFF54" stroke-width="1.689" stroke-linejoin="round" x1="60.314" y1="181.792" x2="17.75" y2="181.792"/>
	<polygon fill="#A80000" stroke="#000000" stroke-width="1.689" stroke-linejoin="round" points="26.189,127.415 27.125,137.542 
		17.75,181.792 18.875,181.792 27.875,136.979 27.125,130.979 	"/>
	<polyline fill="none" stroke="#FFFF54" stroke-width="1.689" stroke-linejoin="round" points="358.625,213.479 611.75,213.479 
		635.375,173.542 	"/>
	
		<line fill="none" stroke="#FFFF54" stroke-width="1.689" stroke-linejoin="round" x1="325.064" y1="96.104" x2="325.064" y2="213.479"/>
	<polygon fill="#A80000" stroke="#000000" stroke-width="1.689" stroke-linejoin="round" points="6.5,190.417 25.625,205.604 
		82.064,205.604 59.939,190.417 	"/>
	<polygon fill="#FFA800" stroke="#000000" stroke-width="1.689" stroke-linejoin="round" points="119.375,227.917 613.438,227.917 
		610.625,230.729 122,230.729 	"/>
	
		<line fill="none" stroke="#000000" stroke-width="1.689" stroke-linejoin="round" x1="29.939" y1="127.604" x2="67.064" y2="116.354"/>
	
		<line fill="none" stroke="#000000" stroke-width="1.689" stroke-linejoin="round" x1="145.625" y1="91.415" x2="79.439" y2="112.229"/>
	
		<line fill="none" stroke="#000000" stroke-width="1.689" stroke-linejoin="round" x1="159.5" y1="89.915" x2="313.439" y2="89.915"/>
	
		<line fill="none" stroke="#A80000" stroke-width="1.689" stroke-linejoin="round" x1="327.314" y1="89.915" x2="489.5" y2="89.915"/>
	<polyline fill="none" stroke="#A80000" stroke-width="1.689" stroke-linejoin="round" points="504.688,89.915 638.188,89.915 
		638.188,165.104 	"/>
	<polygon stroke="#A89187" stroke-width="1.689" stroke-linejoin="round" points="400.439,362.354 404.375,370.417 409.814,374.917 
		415.439,383.354 415.814,385.979 416.375,388.792 413,391.042 418.625,419.354 422.75,427.229 465.5,427.229 496.063,407.542 
		557.188,407.542 561.688,413.542 621.313,413.542 626.75,397.979 627.313,390.104 628.625,385.604 628.063,382.229 
		595.438,382.604 512.938,383.167 513.5,391.604 528.688,391.604 528.688,399.479 497.188,399.479 497.188,392.167 514.25,391.604 
		514.25,378.292 514.813,362.354 	"/>
	<polygon stroke="#000000" stroke-width="1.689" stroke-linejoin="round" points="609.688,283.042 609.688,364.792 597.125,364.792 
		597.125,304.604 	"/>
	<polygon fill="#A80000" stroke="#000000" stroke-width="1.689" stroke-linejoin="round" points="497.188,396.292 453.689,396.292 
		453.689,406.229 535.063,406.229 535.063,391.042 527.563,390.667 527.563,401.917 497.188,401.917 	"/>
	<polygon fill="#FFA800" stroke="#000000" stroke-width="1.689" stroke-linejoin="round" points="399.689,361.604 404.189,370.979 
		405.875,375.479 416.564,383.729 628.063,383.729 629,377.542 630.875,374.729 633.5,374.167 637.625,374.167 638.75,374.167 
		643.813,368.729 612.125,368.729 595.063,360.479 398,359.729 	"/>
	<polygon stroke="#000000" stroke-width="1.689" stroke-linejoin="round" points="552.688,351.854 552.688,367.042 620.563,367.042 
		616.25,373.604 541.813,373.604 539.563,360.479 	"/>
	
		<rect x="552.875" y="340.792" fill="#FFA800" stroke="#000000" stroke-width="1.689" stroke-linejoin="round" width="66" height="26.063"/>
	<rect x="384.689" y="317.542" stroke="#000000" stroke-width="1.689" stroke-linejoin="round" width="129.561" height="8.625"/>
	
		<line fill="none" stroke="#000000" stroke-width="1.689" stroke-linejoin="round" x1="853.438" y1="346.792" x2="915.688" y2="346.792"/>
	
		<rect x="911.375" y="242.354" fill="#A89187" stroke="#000000" stroke-width="1.689" stroke-linejoin="round" width="6.188" height="96.75"/>
	
		<line fill="none" stroke="#000000" stroke-width="1.689" stroke-linejoin="round" x1="892.25" y1="220.604" x2="892.25" y2="345.292"/>
	<polyline fill="none" stroke="#000000" stroke-width="1.689" stroke-linejoin="round" points="719.938,89.729 752.563,87.479 
		810.5,87.479 860.938,90.854 	"/>
	<polyline fill="none" stroke="#000000" stroke-width="1.689" stroke-linejoin="round" points="704.75,192.667 832.625,192.667 
		853.438,187.042 863.188,181.792 867.5,176.167 	"/>
	
		<line fill="none" stroke="#000000" stroke-width="1.689" stroke-linejoin="round" x1="866.375" y1="182.542" x2="876.125" y2="193.792"/>
	
		<line fill="none" stroke="#000000" stroke-width="1.689" stroke-linejoin="round" x1="868.25" y1="181.979" x2="877.063" y2="191.917"/>
	<polyline fill="none" stroke="#000000" stroke-width="1.689" stroke-linejoin="round" points="864.688,184.604 873.688,194.729 
		878.75,190.417 	"/>
	
		<line fill="none" stroke="#000000" stroke-width="1.689" stroke-linejoin="round" x1="864.688" y1="184.604" x2="870.313" y2="181.229"/>
	
		<rect x="742.625" y="201.104" fill="#FFA800" stroke="#000000" stroke-width="1.689" stroke-linejoin="round" width="13.688" height="6"/>
	
		<rect x="742.625" y="201.104" fill="#A80000" stroke="#000000" stroke-width="1.689" stroke-linejoin="round" width="13.688" height="6"/>
	
		<rect x="742.625" y="200.917" fill="#A89187" stroke="#000000" stroke-width="1.689" stroke-linejoin="round" width="13.875" height="3"/>
	
		<rect x="738.125" y="91.04" fill="#FFFFFF" stroke="#000000" stroke-width="1.689" stroke-linejoin="round" width="91.125" height="101.439"/>
	<polygon fill="#FFFFFF" stroke="#000000" stroke-width="1.689" stroke-linejoin="round" points="836,91.604 853.625,93.29 
		868.625,175.604 857.375,187.042 836,192.479 	"/>
	<polygon fill="#FFFFFF" stroke="#000000" stroke-width="1.689" stroke-linejoin="round" points="732.313,91.604 732.313,192.479 
		706.625,192.479 706.625,121.229 721.813,91.979 	"/>
	<polygon fill="#00A0C6" stroke="#000000" stroke-width="1.689" stroke-linejoin="round" points="740.188,91.979 740.375,121.979 
		749,118.979 754.063,118.979 764.75,107.354 796.813,104.915 801.5,101.54 811.063,100.04 825.875,99.854 827.75,99.479 
		827.75,91.979 	"/>
	<polygon fill="#00A0C6" stroke="#000000" stroke-width="1.689" stroke-linejoin="round" points="730.813,130.229 725,131.542 
		722.938,135.479 716.563,136.604 711.5,140.542 710.563,144.292 709.438,143.729 709.438,121.979 724.063,91.979 730.813,91.979 	
		"/>
	<polygon fill="#00A0C6" stroke="#000000" stroke-width="1.689" stroke-linejoin="round" points="836,92.54 841.625,97.229 
		846.875,103.229 840.688,100.04 855.125,118.04 843.5,114.479 847.438,120.854 850.625,126.854 843.875,124.604 852.875,130.229 
		861.875,147.292 852.5,94.79 	"/>
	<polygon stroke="#A80000" stroke-width="1.689" stroke-linejoin="round" points="731.75,91.604 717.313,92.54 715.438,97.229 
		731.75,96.479 	"/>
	<rect x="738.125" y="91.604" stroke="#A80000" stroke-width="1.689" stroke-linejoin="round" width="91.125" height="3.75"/>
	<polygon fill="#00A0C6" stroke="#000000" stroke-width="1.689" stroke-linejoin="round" points="708.313,173.354 726.875,176.729 
		731.375,176.729 731.375,190.417 708.313,190.417 708.313,174.479 	"/>
	<polygon fill="#00A0C6" stroke="#000000" stroke-width="1.689" stroke-linejoin="round" points="740.188,177.292 761.938,177.854 
		760.813,179.729 770.563,181.229 771.125,184.042 790.25,185.167 809.375,183.104 828.125,183.104 828.125,190.417 
		740.188,190.417 	"/>
	<polygon fill="#00A0C6" stroke="#000000" stroke-width="1.689" stroke-linejoin="round" points="837.688,184.042 838.438,190.417 
		854.188,186.479 863.563,179.167 854.188,177.854 853.625,174.479 837.688,175.229 	"/>
	
		<rect x="849.688" y="85.229" fill="#A80000" stroke="#000000" stroke-width="1.689" stroke-linejoin="round" width="63.938" height="8.625"/>
	<polygon fill="#A89187" stroke="#000000" stroke-width="1.689" stroke-linejoin="round" points="837.125,92.54 858.5,115.79 
		854.563,93.665 841.25,91.979 	"/>
	<polygon stroke="#A80000" stroke-width="1.689" stroke-linejoin="round" points="835.063,91.415 850.25,85.415 850.625,94.79 	"/>
	<polyline fill="none" stroke="#000000" stroke-width="1.689" stroke-linejoin="round" points="835.063,199.229 856.438,194.917 
		864.688,190.417 866.938,186.292 	"/>
	<polyline fill="none" stroke="#000000" stroke-width="1.689" stroke-linejoin="round" points="860.375,192.667 892.25,220.604 
		911.375,220.604 	"/>
	<polygon fill="#A80000" stroke="#000000" stroke-width="1.689" stroke-linejoin="round" points="677.75,107.165 707.563,48.479 
		716.188,44.354 860.375,44.354 825.313,50.729 819.313,59.54 842.938,59.54 826.625,63.665 748.063,63.665 733.438,69.104 
		719,90.29 717.125,92.54 721.813,96.479 707.188,130.229 703.625,126.854 684.125,162.667 	"/>
	<rect x="677.75" y="107.354" stroke="#A80000" stroke-width="1.689" stroke-linejoin="round" width="13.5" height="120.938"/>
	<rect x="657.125" y="220.604" fill="#FFA800" width="11.438" height="7.125"/>
	
		<rect x="668.938" y="24.29" fill="#A89187" stroke="#000000" stroke-width="1.689" stroke-linejoin="round" width="15.188" height="217.127"/>
	
		<rect x="677.375" y="25.229" fill="#FFFFFF" stroke="#FFFFFF" stroke-width="1.689" stroke-linejoin="round" width="5.625" height="203.25"/>
	
		<rect x="670.25" y="26.915" fill="#A89187" stroke="#000000" stroke-width="1.689" stroke-linejoin="round" width="5.438" height="201.939"/>
	<polygon fill="#A89187" stroke="#000000" stroke-width="1.689" stroke-linejoin="round" points="671.375,18.104 678.313,10.229 
		678.875,13.04 673.063,18.665 	"/>
	<polygon fill="#A89187" stroke="#000000" stroke-width="1.689" stroke-linejoin="round" points="670.25,18.104 678.875,9.479 
		674.75,9.104 669.5,15.854 	"/>
	<polyline fill="none" stroke="#000000" stroke-width="1.689" stroke-linejoin="round" points="703.625,287.354 703.625,287.542 
		703.625,287.917 703.625,288.479 703.813,288.667 703.813,289.042 704.188,289.229 704.375,289.604 704.375,289.792 
		704.75,290.167 704.938,290.167 705.313,290.354 705.5,290.729 705.875,290.729 706.063,290.917 706.438,290.917 706.625,290.917 
		707.188,290.917 707.188,291.292 	"/>
	<polyline fill="none" stroke="#FFFF54" stroke-width="1.689" stroke-linejoin="round" points="845,345.854 842.188,342.854 
		836.75,336.854 826.625,327.667 816.313,319.417 804.688,312.104 792.875,305.917 780.5,300.667 767.563,296.354 754.625,293.542 
		740.938,291.854 727.813,291.292 714.313,291.854 708.125,292.417 	"/>
	<polyline fill="none" stroke="#000000" stroke-width="1.689" stroke-linejoin="round" points="708.125,290.729 714.313,290.167 
		727.813,289.229 741.313,290.167 754.813,291.854 768.125,295.042 781.063,298.979 793.625,304.229 805.438,310.792 
		817.063,318.104 828.125,326.542 837.875,335.542 843.5,341.729 847.438,346.229 	"/>
	
		<line fill="none" stroke="#000000" stroke-width="1.689" stroke-linejoin="round" x1="703.813" y1="287.354" x2="703.813" y2="123.479"/>
	
		<line fill="none" stroke="#000000" stroke-width="1.689" stroke-linejoin="round" x1="832.625" y1="328.979" x2="832.625" y2="89.729"/>
	
		<line fill="none" stroke="#000000" stroke-width="1.689" stroke-linejoin="round" x1="735.125" y1="89.354" x2="735.125" y2="287.354"/>
	
		<rect x="456.875" y="298.042" fill="#A80000" stroke="#000000" stroke-width="1.689" stroke-linejoin="round" width="14.814" height="15.188"/>
	
		<rect x="849.688" y="287.354" fill="#FFA800" stroke="#000000" stroke-width="1.689" stroke-linejoin="round" width="15" height="49.5"/>
	
		<rect x="609.688" y="259.417" fill="#FFA800" stroke="#000000" stroke-width="1.689" stroke-linejoin="round" width="49.125" height="107.625"/>
	<polygon fill="#A80000" stroke="#000000" stroke-width="1.689" stroke-linejoin="round" points="869.938,439.979 900.688,440.917 
		900.688,409.792 893.938,411.292 880.813,414.104 867.125,415.417 	"/>
	<polygon stroke="#A89187" stroke-width="1.689" stroke-linejoin="round" points="885.875,378.667 882.688,379.792 881.938,383.167 
		880.25,407.542 878.75,414.104 875.375,421.042 871.063,428.729 868.063,434.917 865.813,439.229 864.688,440.917 887.75,442.042 
		887.75,378.292 	"/>
	<polygon fill="#A89187" stroke="#000000" stroke-width="1.689" stroke-linejoin="round" points="893.375,445.604 889.25,444.292 
		887,441.479 885.875,436.042 885.875,373.229 886.625,371.354 889.25,369.104 892.813,367.604 898.25,366.854 931.063,366.854 
		935.563,368.542 939.313,373.042 941,377.167 944,379.417 942.313,379.792 939.875,382.042 939.313,387.854 944.938,390.104 
		939.875,393.292 938.938,400.604 943.438,402.479 939.313,404.729 938.938,413.542 944.563,415.417 939.875,418.042 
		939.313,426.104 945.5,428.729 940.625,432.667 941,437.167 940.438,440.917 938.375,443.729 934.438,444.479 930.313,445.604 	"/>
	<polygon stroke="#000000" stroke-width="1.689" stroke-linejoin="round" points="893.75,402.479 893.938,404.167 895.438,405.667 
		897.688,405.854 938.188,405.854 939.875,405.854 942.313,405.292 943.25,404.167 944,402.479 942.313,403.604 940.438,404.167 
		897.688,404.167 895.625,403.979 894.875,402.479 	"/>
	<polygon stroke="#000000" stroke-width="1.689" stroke-linejoin="round" points="893.938,390.667 894.313,392.167 895.625,393.479 
		898.25,394.042 938.375,394.042 940.438,394.042 942.688,393.292 943.438,392.167 944.563,390.667 942.688,391.229 
		940.625,392.167 898.25,392.167 896.188,391.792 895.438,390.667 	"/>
	<polygon stroke="#000000" stroke-width="1.689" stroke-linejoin="round" points="893.75,379.417 893.938,381.104 895.438,382.229 
		897.688,382.792 938.188,382.792 939.875,382.792 942.313,382.042 943.25,381.104 944,379.417 942.313,380.354 940.438,381.104 
		897.688,381.104 895.625,380.542 894.875,379.417 	"/>
	<polygon stroke="#000000" stroke-width="1.689" stroke-linejoin="round" points="894.313,415.417 894.875,417.104 896.188,418.604 
		898.813,418.792 938.938,418.792 940.625,418.792 943.25,418.042 944,417.104 944.938,415.417 943.25,416.354 941,417.104 
		898.813,417.104 896.563,416.917 895.625,415.417 	"/>
	<polygon stroke="#000000" stroke-width="1.689" stroke-linejoin="round" points="894.875,429.292 895.438,430.979 896.563,432.479 
		899,432.667 939.313,432.667 941,432.667 943.438,431.729 944.563,430.979 945.5,429.292 943.438,430.042 941.563,430.979 
		899,430.979 897.125,430.604 896.188,429.292 	"/>
	<polygon fill="#A89187" stroke="#FFFFFF" stroke-width="1.689" stroke-linejoin="round" points="897.125,375.292 937.25,375.292 
		938.938,375.292 941.563,376.042 942.313,376.979 943.25,378.667 941.563,377.542 939.313,376.979 	"/>
	<polygon fill="#A89187" stroke="#FFFFFF" stroke-width="1.689" stroke-linejoin="round" points="897.875,386.167 938.188,386.167 
		939.875,386.167 942.313,387.292 943.25,387.854 944,389.542 942.313,388.979 940.438,387.854 	"/>
	<polygon fill="#A89187" stroke="#FFFFFF" stroke-width="1.689" stroke-linejoin="round" points="897.875,398.354 938.188,398.354 
		939.875,398.354 942.313,399.104 943.25,400.042 944,401.729 942.313,400.792 940.438,400.042 	"/>
	<polygon fill="#A89187" stroke="#FFFFFF" stroke-width="1.689" stroke-linejoin="round" points="898.25,411.854 938.375,411.854 
		940.438,411.854 942.688,412.604 943.438,413.542 944.563,415.229 942.688,414.104 940.625,413.542 	"/>
	<polygon fill="#A89187" stroke="#FFFFFF" stroke-width="1.689" stroke-linejoin="round" points="898.813,424.979 938.938,424.979 
		940.625,424.979 943.25,425.917 944,426.667 944.938,428.354 943.25,427.604 941,426.667 	"/>
	<polygon stroke="#A89187" stroke-width="1.689" stroke-linejoin="round" points="888.688,442.604 888.875,444.292 890,445.604 
		892.625,446.167 933.125,446.167 934.813,446.167 937.25,445.417 938.188,444.292 938.938,442.604 937.25,443.729 935,444.292 
		892.625,444.292 890.563,443.917 889.813,442.604 	"/>
	<polygon fill="#FFA800" stroke="#FFA800" stroke-width="1.689" stroke-linejoin="round" points="69.5,114.479 76.064,112.415 
		76.064,190.229 69.5,183.667 	"/>
	
		<rect x="146.75" y="91.04" fill="#FFA800" stroke="#FFA800" stroke-width="1.689" stroke-linejoin="round" width="8.439" height="120.002"/>
	
		<rect x="315.125" y="91.04" fill="#FFA800" stroke="#FFA800" stroke-width="1.689" stroke-linejoin="round" width="8.814" height="120.002"/>
	
		<rect x="492.313" y="91.04" fill="#FFA800" stroke="#FFA800" stroke-width="1.689" stroke-linejoin="round" width="8.438" height="120.002"/>
	
		<line fill="none" stroke="#FFFF54" stroke-width="1.689" stroke-linejoin="round" x1="76.064" y1="111.665" x2="76.064" y2="192.479"/>
	
		<line fill="none" stroke="#FFFF54" stroke-width="1.689" stroke-linejoin="round" x1="156.125" y1="89.165" x2="156.125" y2="212.167"/>
	
		<line fill="none" stroke="#FFFF54" stroke-width="1.689" stroke-linejoin="round" x1="501.688" y1="90.29" x2="501.688" y2="213.479"/>
	
		<rect x="658.813" y="229.417" fill="#A89187" stroke="#000000" stroke-width="1.689" stroke-linejoin="round" width="38.063" height="120.375"/>
	
		<rect x="683.375" y="228.479" fill="#FFFFFF" stroke="#FFFFFF" stroke-width="1.689" stroke-linejoin="round" width="8.438" height="120.75"/>
	<polygon stroke="#A89187" stroke-width="1.689" stroke-linejoin="round" points="720.125,337.229 731.375,337.229 743.75,339.479 
		755.938,342.292 766.063,346.979 777.688,351.854 787.813,359.354 797.375,366.854 806,375.479 813.125,385.042 820.813,395.729 
		825.5,406.979 830,417.667 833.188,430.042 834.875,442.792 836,456.104 834.875,467.354 833.188,479.729 830,492.104 
		825.5,502.792 820.813,514.042 813.125,524.729 806,534.292 797.375,543.104 787.813,550.604 777.688,558.292 766.063,562.979 
		755.938,567.479 743.75,570.667 731.375,572.354 720.125,573.479 707.188,572.354 694.813,570.667 682.438,567.479 671.75,562.979 
		660.688,558.292 650.563,550.604 641.375,543.104 632.563,534.292 625.063,524.729 617.75,514.042 612.875,502.792 
		608.375,492.104 605.188,479.729 603.5,467.354 603.5,456.104 603.5,442.792 605.188,430.042 608.375,417.667 612.875,406.979 
		617.75,395.729 625.063,385.042 632.563,375.479 641.375,366.854 650.563,359.354 660.688,351.854 671.75,346.979 682.438,342.292 
		694.813,339.479 707.188,337.229 	"/>
	<polygon stroke="#FFFFFF" stroke-width="1.689" stroke-linejoin="round" points="790.25,455.729 790.063,449.542 789.125,443.167 
		787.813,436.979 786.125,430.979 783.5,424.979 780.5,419.354 777.125,414.104 773.188,409.042 768.875,404.542 764.188,400.229 
		759.125,396.292 753.688,392.917 748.063,390.104 742.063,387.854 735.875,386.167 729.688,384.854 723.313,384.292 
		717.125,383.917 710.563,384.479 704.375,385.417 698.188,387.104 692.375,388.979 686.375,391.604 681.125,394.604 
		675.688,398.354 670.813,402.292 666.125,406.792 662.188,411.479 658.438,416.542 655.063,422.167 652.625,427.792 
		650.375,433.792 648.688,439.979 647.563,446.167 647,452.729 647,459.104 647.563,465.292 648.688,471.479 650.375,477.667 
		652.625,483.667 655.063,489.479 658.438,494.917 662.188,499.979 666.125,505.042 670.813,509.354 675.688,513.479 
		681.125,516.854 686.375,520.042 692.375,522.854 698.188,524.729 704.375,526.229 710.563,527.354 717.125,527.542 
		723.313,527.542 729.688,526.792 735.875,525.667 742.063,523.979 748.063,521.354 753.688,518.542 759.125,515.167 
		764.188,511.604 768.875,507.292 773.188,502.417 777.125,497.354 780.5,492.104 783.5,486.667 786.125,480.854 787.813,474.667 
		789.125,468.479 790.063,462.292 790.25,455.729 	"/>
	<polygon fill="#A89187" stroke="#A89187" stroke-width="1.689" stroke-linejoin="round" points="828.875,405.854 820.813,399.667 
		814.813,396.854 807.125,394.979 800.75,394.042 793.625,395.167 785,397.229 778.438,396.292 788.375,408.479 791.188,404.167 
		795.313,401.917 800.75,401.167 807.5,401.354 814.063,402.292 819.688,403.979 825.875,407.354 830.938,410.729 832.063,410.917 	
		"/>
	<polygon stroke="#A89187" stroke-width="1.689" stroke-linejoin="round" points="790.25,405.667 789.688,406.792 788.938,408.479 
		789.125,409.792 789.688,410.729 791.75,410.917 793.438,410.354 796.813,409.604 802.438,409.604 807.5,410.354 814.063,411.479 
		819.688,413.729 825.5,415.417 827.188,416.354 828.688,418.042 830.375,420.854 831.5,419.354 832.25,418.229 833.938,417.479 
		834.313,414.104 832.25,411.479 829.438,409.229 827.188,407.354 822.5,405.104 818.563,403.604 814.25,402.479 807.125,400.792 
		801.5,401.354 796.438,401.917 792.313,403.604 	"/>
	<polygon fill="#A89187" stroke="#A89187" stroke-width="1.689" stroke-linejoin="round" points="805.25,369.104 795.313,366.292 
		788.563,365.917 781.063,366.854 774.875,368.729 768.688,372.479 761.375,377.167 754.813,379.229 768.313,386.542 
		769.438,381.479 772.813,377.542 777.313,375.292 783.5,372.667 790.063,370.979 795.688,370.417 802.625,371.354 808.625,372.667 
		809.75,372.479 	"/>
	<polygon stroke="#A89187" stroke-width="1.689" stroke-linejoin="round" points="769.438,383.167 769.25,384.854 769.25,386.167 
		770.375,387.292 770.563,388.229 771.125,386.729 772.813,385.042 776.188,383.167 782.75,379.792 788,378.292 793.438,378.104 
		800.188,378.104 805.25,379.417 807.125,379.417 809.188,379.979 811.813,382.229 812.375,380.542 812.938,378.854 
		814.063,377.729 813.125,374.354 809.938,373.042 806.938,371.917 803.75,370.792 798.688,370.792 794.563,370.792 
		790.063,371.354 783.313,372.479 778.25,374.917 773.75,377.542 770.375,380.542 	"/>
	<polygon fill="#A89187" stroke="#A89187" stroke-width="1.689" stroke-linejoin="round" points="722.188,332.167 713.375,337.229 
		708.313,341.354 703.25,347.354 700.25,353.167 698.188,359.729 696.313,368.729 692.938,374.354 707.75,370.229 704.938,366.292 
		704.75,360.854 706.438,355.792 709.25,349.792 712.813,344.167 716.563,339.667 721.813,335.167 727.25,332.167 727.813,331.229 	
		"/>
	<polygon stroke="#A89187" stroke-width="1.689" stroke-linejoin="round" points="706.063,367.042 707.188,368.542 708.125,369.667 
		709.813,369.854 710.375,369.854 710,368.542 710,366.292 711.125,362.354 713.188,355.417 716.188,350.729 719.938,346.792 
		725,341.917 729.5,339.479 730.813,337.792 732.875,337.229 735.875,336.854 735.313,335.167 734.563,333.854 734.563,332.167 
		731.75,330.479 728.375,331.229 725.188,332.917 722.75,334.042 718.813,337.792 715.625,340.792 712.813,344.167 708.875,349.792 
		706.625,355.229 705.5,360.292 704.938,364.792 	"/>
	<polygon fill="#A89187" stroke="#A89187" stroke-width="1.689" stroke-linejoin="round" points="840.688,452.917 836.188,443.917 
		831.688,438.667 825.875,433.792 820.25,430.417 813.5,428.354 804.688,426.479 798.688,423.104 803,438.292 807.125,435.479 
		812.375,435.292 817.438,436.604 823.625,439.792 828.875,443.167 833.375,447.104 837.688,452.729 840.688,457.979 
		841.625,458.542 	"/>
	<polygon fill="#A89187" stroke="#A89187" stroke-width="1.689" stroke-linejoin="round" points="599,484.792 606.125,492.104 
		611.75,496.042 619.063,498.854 625.25,500.542 632.375,500.542 641,499.979 647.563,501.667 639.313,488.167 636.313,492.104 
		631.438,493.792 626.375,493.792 619.625,492.667 613.25,490.604 608,488.354 602.188,484.229 597.875,479.917 596.75,479.354 	"/>
	<polygon stroke="#A89187" stroke-width="1.689" stroke-linejoin="round" points="636.875,490.979 638,489.479 638.75,488.167 
		638.75,486.667 638.563,485.917 637.438,486.667 634.813,487.229 630.875,487.229 624.125,487.042 618.5,485.354 613.813,483.104 
		607.813,479.354 603.875,475.979 602.188,474.854 601.063,473.167 599.938,469.792 598.438,471.292 597.313,472.417 
		595.625,472.604 594.875,475.979 596.75,479.167 599,481.604 601.063,483.854 605.563,486.667 609.5,488.729 613.438,490.417 
		620,492.854 625.25,493.229 630.688,493.417 634.813,492.667 	"/>
	<polygon fill="#A89187" stroke="#A89187" stroke-width="1.689" stroke-linejoin="round" points="831.688,497.354 830,487.229 
		827.188,480.854 823.25,474.292 818.75,469.604 812.938,465.667 805.25,460.792 800.75,456.104 800.188,471.854 804.875,470.354 
		809.75,471.479 814.063,474.667 819.125,479.354 823.25,484.417 826.438,489.479 828.688,496.042 830,502.229 830.938,503.167 	"/>
	<polygon stroke="#A89187" stroke-width="1.689" stroke-linejoin="round" points="803.563,470.917 802.063,471.479 800.75,472.042 
		799.813,473.542 799.625,474.104 801.313,474.104 803.188,474.854 806.563,477.104 812.375,481.417 815.938,485.917 
		818.75,490.417 821.563,496.792 822.688,501.854 823.625,503.917 823.813,505.979 822.688,509.354 824.75,508.792 826.438,508.792 
		828.125,509.354 830.375,507.104 830.563,503.354 830,499.979 829.813,497.167 827.563,492.104 825.5,488.354 823.25,484.792 
		819.125,478.792 814.625,475.417 810.313,472.417 806.375,470.729 	"/>
	<polygon fill="#A89187" stroke="#A89187" stroke-width="1.689" stroke-linejoin="round" points="809.188,537.667 811.813,527.917 
		811.813,521.167 810.5,513.479 808.625,507.292 804.875,501.292 799.813,493.979 797.563,487.604 790.813,501.667 795.875,502.229 
		799.813,505.417 802.438,509.917 804.875,516.292 806.563,522.479 807.5,528.479 806.938,535.417 805.813,541.604 806,542.542 	"/>
	<polygon stroke="#A89187" stroke-width="1.689" stroke-linejoin="round" points="794.563,502.229 792.5,502.229 791.188,502.229 
		789.688,503.167 789.5,503.729 790.813,504.292 792.5,505.979 794.75,509.354 798.125,515.542 799.625,520.792 800.188,525.854 
		800.188,533.167 799.25,538.229 799.25,540.292 798.5,542.167 796.438,544.979 798.5,545.354 799.625,545.917 800.938,547.042 
		804.125,546.104 805.813,543.104 806.563,539.729 807.5,536.542 807.5,531.479 807.125,527.354 806.563,522.854 805.25,516.104 
		802.438,511.042 799.813,506.542 796.813,503.167 	"/>
	<polygon fill="#A89187" stroke="#A89187" stroke-width="1.689" stroke-linejoin="round" points="777.313,560.729 782.375,552.292 
		784.625,545.917 785.563,538.042 785.563,531.479 783.875,524.729 780.688,516.104 780.688,509.354 770.375,520.792 774.5,523.042 
		777.688,527.354 778.813,532.417 779.563,539.167 779,545.917 778.438,551.542 775.625,557.917 772.813,563.542 773.188,564.667 	
		"/>
	<polygon stroke="#A89187" stroke-width="1.689" stroke-linejoin="round" points="773.375,522.479 771.688,521.917 770.375,521.354 
		768.875,521.917 768.125,522.479 769.25,523.417 770.563,525.667 771.5,529.604 773.188,536.354 772.813,541.979 772.063,547.229 
		770.375,553.792 767.563,558.479 767.188,560.542 765.875,562.229 763.063,564.104 764.75,565.229 765.875,566.167 767,567.479 
		770.375,567.479 772.625,564.667 774.313,561.854 776,559.604 777.688,554.354 778.438,550.042 779,545.917 779.563,538.604 
		778.813,533.167 777.313,528.479 775.438,524.167 	"/>
	<polygon fill="#A89187" stroke="#A89187" stroke-width="1.689" stroke-linejoin="round" points="770.375,344.542 759.875,345.104 
		753.5,346.792 746.75,350.167 741.313,354.104 736.438,359.354 731.188,366.854 725.75,370.417 740.938,373.042 740.375,367.979 
		742.063,363.104 745.813,359.354 750.875,354.854 756.5,351.292 761.563,349.042 768.313,347.354 774.5,346.792 775.438,345.854 	
		"/>
	<polygon stroke="#A89187" stroke-width="1.689" stroke-linejoin="round" points="740.75,369.292 741.313,370.979 741.5,372.479 
		742.625,373.604 743.563,373.792 743.75,372.479 744.688,370.229 747.313,367.042 752,361.979 756.875,358.792 761.563,356.542 
		768.313,354.292 773.75,354.104 775.438,353.167 777.688,353.542 780.688,354.667 780.688,352.979 780.688,351.292 781.25,349.792 
		779.375,346.792 776,346.229 772.25,346.229 769.438,346.229 764.375,347.917 760.438,349.604 756.5,351.479 750.688,354.854 
		746.375,358.792 743,362.542 740.75,366.854 	"/>
	<polygon fill="#A89187" stroke="#A89187" stroke-width="1.689" stroke-linejoin="round" points="679.625,340.792 672.5,347.917 
		668.563,353.542 665.563,360.479 664.063,367.042 664.063,374.167 664.625,383.167 662.938,389.542 676.25,381.479 672.5,378.292 
		670.625,373.229 670.813,367.979 671.75,361.042 673.625,354.854 675.875,349.604 680.188,343.979 684.5,339.479 684.688,338.354 	
		"/>
	<polygon stroke="#A89187" stroke-width="1.689" stroke-linejoin="round" points="673.625,378.854 674.75,379.979 676.25,380.917 
		677.75,380.542 678.875,380.354 677.75,379.229 677,376.979 677,373.042 677.375,365.917 678.875,360.292 681.313,355.417 
		684.688,349.229 688.438,345.667 689.563,343.604 691.25,342.479 694.25,341.354 692.938,340.042 692,338.917 691.438,337.229 
		688.438,336.292 685.25,338.354 682.813,340.604 680.563,342.479 677.75,346.979 675.688,350.917 674,354.854 671.375,361.604 
		671.188,367.417 671.188,372.479 671.938,376.604 	"/>
	<polygon fill="#A89187" stroke="#A89187" stroke-width="1.689" stroke-linejoin="round" points="614,393.479 613.813,403.604 
		614.938,410.354 617.75,417.667 621.125,423.292 625.813,428.354 632.375,434.729 635.75,440.354 639.313,424.979 634.625,425.354 
		630.125,423.104 626.375,419.354 622.813,413.729 619.438,407.917 617.75,402.292 616.625,395.167 616.625,388.979 
		616.063,387.854 	"/>
	<polygon stroke="#A89187" stroke-width="1.689" stroke-linejoin="round" points="635.938,424.979 637.625,424.792 639.125,424.417 
		640.25,423.292 640.438,422.542 639.125,422.542 636.875,421.042 634.25,418.229 629.563,412.979 626.938,407.917 625.25,403.042 
		623.938,396.104 623.563,390.667 623.375,388.792 623.375,386.729 625.063,383.729 623.375,383.729 621.688,383.354 
		620.188,382.604 617.188,384.292 616.25,387.854 616.063,391.042 616.063,394.042 616.813,399.479 618.313,403.604 
		619.625,407.542 622.438,414.104 626.188,418.604 629.75,422.167 633.5,424.792 	"/>
	<polygon fill="#A89187" stroke="#A89187" stroke-width="1.689" stroke-linejoin="round" points="616.625,521.729 624.688,527.354 
		630.875,530.167 638.563,531.854 644.938,532.042 651.688,530.729 660.688,528.479 667.25,528.667 656.563,517.417 
		654.313,521.729 649.813,524.167 644.75,525.104 638,525.292 631.438,524.542 625.813,523.417 619.438,520.229 614.375,517.229 
		613.25,516.854 	"/>
	<polygon stroke="#A89187" stroke-width="1.689" stroke-linejoin="round" points="654.875,520.229 655.438,518.917 656,517.417 
		655.625,515.729 655.063,515.167 654.313,516.104 652.063,517.229 648.125,517.979 641.375,519.104 635.75,518.542 
		630.688,517.229 623.938,514.979 619.438,511.792 617.75,511.229 616.063,509.917 614.375,507.104 613.438,508.417 
		612.313,509.917 610.625,510.667 610.625,514.042 612.875,516.667 615.688,518.542 617.938,520.229 623,522.292 626.938,523.417 
		631.438,524.542 638.188,525.667 643.813,525.104 648.875,524.167 652.813,522.292 	"/>
	<polygon fill="#A89187" stroke="#A89187" stroke-width="1.689" stroke-linejoin="round" points="646.438,552.104 656,553.979 
		662.938,553.792 670.25,552.104 676.438,549.479 681.875,545.354 689,539.729 695.188,537.104 680.75,530.917 680.188,535.979 
		677.75,540.292 673.063,543.292 667.25,546.479 660.688,548.729 655.438,549.854 648.313,549.854 642.125,548.917 641,549.479 	"/>
	<polygon stroke="#A89187" stroke-width="1.689" stroke-linejoin="round" points="680.188,534.667 680.188,532.979 680.188,531.292 
		679.063,530.167 678.5,529.792 677.938,531.292 676.438,533.167 673.438,535.417 667.438,539.167 662.188,541.417 657.125,542.167 
		650,543.104 644.75,542.167 642.688,542.167 640.813,541.979 638,539.917 637.625,541.604 637.438,543.104 636.5,544.417 
		637.625,547.604 640.813,548.917 644.188,549.854 647,550.604 652.25,550.042 656.563,549.479 660.688,548.729 667.438,546.479 
		672.313,543.667 676.438,540.479 679.438,537.104 	"/>
	<polygon fill="#A89187" stroke="#A89187" stroke-width="1.689" stroke-linejoin="round" points="646.625,359.167 641.938,367.979 
		639.875,374.729 639.125,382.229 639.313,388.979 641.563,395.729 644.75,404.167 644.938,410.729 655.063,398.917 
		650.563,397.229 647.563,392.917 646.438,387.854 645.313,381.104 645.313,374.354 645.875,368.729 648.313,361.979 
		650.938,356.354 650.938,355.229 	"/>
	<polygon stroke="#A89187" stroke-width="1.689" stroke-linejoin="round" points="652.063,397.417 653.75,397.979 655.063,398.542 
		656.563,397.792 657.125,397.229 656,396.292 654.875,394.417 653.75,390.667 651.688,383.729 651.688,378.104 652.625,372.667 
		654.313,365.917 656.563,361.042 657.125,359.167 657.875,357.479 660.688,355.229 659,354.292 657.875,353.542 657.125,352.042 
		653.75,352.417 651.5,355.229 649.438,358.042 648.125,360.479 646.625,365.729 645.875,369.854 645.313,374.354 644.938,381.479 
		646.438,386.729 647.75,392.167 649.813,395.729 	"/>
	<polygon fill="#A89187" stroke="#A89187" stroke-width="1.689" stroke-linejoin="round" points="597.125,439.792 600.688,449.354 
		604.438,454.979 609.5,460.604 614.938,464.542 621.313,467.354 629.75,470.354 634.813,474.292 632.563,458.917 628.063,461.167 
		623.375,460.792 618.313,458.542 612.688,454.979 607.438,450.667 603.5,446.729 600.125,440.354 597.688,434.729 596.75,434.167 	
		"/>
	<polygon stroke="#A89187" stroke-width="1.689" stroke-linejoin="round" points="629.563,460.229 630.875,459.479 632,458.542 
		632.563,457.229 632.563,456.292 631.25,456.667 629,456.292 625.25,454.604 619.063,451.792 614.563,447.854 611.188,444.292 
		606.875,438.292 605,433.229 603.5,431.729 603.313,429.854 603.313,426.479 601.625,427.042 600.125,427.604 598.438,427.229 
		596.563,430.042 596.75,433.604 597.875,436.979 599,439.792 601.813,443.917 605,447.667 607.813,450.667 612.875,455.542 
		617.75,457.979 622.438,460.042 626.75,460.792 	"/>
	<polygon fill="#A89187" stroke="#A89187" stroke-width="1.689" stroke-linejoin="round" points="740.75,570.854 744.125,568.979 
		748.625,563.917 752.938,557.354 755.375,551.167 756.5,544.229 757.438,535.229 759.875,529.229 745.813,535.229 748.625,539.167 
		749.75,544.229 749,549.292 746.75,555.667 743.75,561.854 740.75,566.729 735.688,571.792 737.375,571.979 738.688,571.792 	"/>
	<polygon stroke="#A89187" stroke-width="1.689" stroke-linejoin="round" points="747.875,538.042 746.75,536.917 745.25,535.792 
		743.75,535.792 743,535.792 743.75,537.104 744.125,539.729 743.188,543.667 741.875,550.604 739.625,555.667 736.438,559.979 
		731.375,565.229 728.375,568.604 725.188,570.104 724.625,571.229 721.625,571.792 722.75,573.104 726.125,573.479 
		726.688,573.479 728.563,573.479 731.375,573.104 733.063,573.104 735.313,572.542 738.688,568.979 741.313,565.229 
		743.563,561.667 747.313,555.479 748.438,550.042 749.188,544.792 749.188,540.479 	"/>
	<polygon fill="#A89187" stroke="#A89187" stroke-width="1.689" stroke-linejoin="round" points="689.75,570.667 696.875,568.979 
		702.688,566.167 709.25,561.667 713.75,556.792 717.313,550.604 721.625,542.729 726.125,538.042 710.563,538.229 712.25,543.104 
		711.5,547.792 708.313,552.667 703.813,557.729 699.125,562.229 694.625,565.604 687.875,568.417 685.813,568.979 687.5,569.729 	
		"/>
	<polygon stroke="#A89187" stroke-width="1.689" stroke-linejoin="round" points="711.5,541.979 710.938,540.292 710.375,538.604 
		708.688,538.042 708.125,538.042 708.125,539.354 707.563,541.604 705.5,545.354 701.563,550.979 697.625,554.917 692.938,557.729 
		686.938,561.104 681.875,562.417 680,563.542 677.938,563.542 674.75,562.979 674.75,565.604 675.313,566.167 675.313,566.354 
		678.875,567.479 681.313,568.417 683.938,569.542 687.313,569.542 691.813,566.729 695.375,564.479 698.75,562.229 
		704.375,557.729 707.75,553.229 710.375,548.729 711.688,544.417 	"/>
	<polygon fill="#FFA800" stroke="#000000" stroke-width="1.689" stroke-linejoin="round" points="768.313,455.542 768.125,450.104 
		767.188,444.854 766.063,439.792 764.188,434.729 761.563,429.854 758.75,425.542 755.375,421.417 751.813,417.667 747.5,414.292 
		743,411.292 738.125,409.042 733.438,406.979 728.375,405.667 722.938,404.729 717.688,404.542 712.25,404.729 707.188,405.667 
		701.938,406.979 697.063,409.042 692.375,411.292 687.875,414.292 683.938,417.667 680,421.417 676.438,425.542 673.625,429.854 
		671.375,434.729 669.5,439.792 668,444.854 667.25,450.104 666.875,455.542 667.25,460.792 668,465.854 669.5,471.292 
		671.375,475.979 673.625,480.854 676.438,485.354 680,489.479 683.938,493.229 687.875,496.604 692.375,499.417 697.063,501.854 
		701.938,503.729 707.188,505.042 712.25,505.979 717.688,506.167 722.938,505.979 728.375,505.042 733.438,503.729 
		738.125,501.854 743,499.417 747.5,496.604 751.813,493.229 755.375,489.479 758.75,485.354 761.563,480.854 764.188,475.979 
		766.063,471.292 767.188,465.854 768.125,460.792 768.313,455.542 	"/>
	<polygon fill="#A80000" stroke="#000000" stroke-width="1.689" stroke-linejoin="round" points="758.563,454.604 758.188,450.104 
		757.438,445.417 755.938,440.917 754.063,436.417 751.438,432.479 748.625,428.729 745.625,425.354 741.875,422.167 
		737.563,419.729 733.438,417.667 728.938,415.979 724.438,415.229 719.563,414.667 714.875,414.854 710.375,415.417 
		705.875,416.917 701.375,418.604 697.063,420.854 693.5,423.667 689.75,426.667 686.75,430.417 684.125,434.354 681.875,438.667 
		680.188,443.167 679.063,447.667 678.5,452.354 678.5,457.229 679.063,461.729 680.188,466.417 681.875,470.917 684.125,474.854 
		686.75,478.792 689.75,482.542 693.5,485.917 697.063,488.354 701.375,490.604 705.875,492.667 710.375,493.792 714.875,494.542 
		719.563,494.542 724.438,494.354 728.938,493.229 733.438,491.729 737.563,489.854 741.875,487.229 745.625,484.229 
		748.625,480.854 751.438,477.104 754.063,472.979 755.938,468.667 757.438,464.167 758.188,459.479 758.563,454.604 	"/>
	<polygon stroke="#000000" stroke-width="1.689" stroke-linejoin="round" points="750.313,454.604 750.125,450.479 749.188,446.167 
		747.875,442.229 745.813,438.667 743.563,434.917 740.75,431.729 737.375,428.917 733.625,426.667 730.063,424.979 725.75,423.667 
		721.625,423.104 717.313,422.729 713.188,423.292 708.875,424.229 704.938,425.917 701.375,427.792 698,430.417 694.813,433.229 
		692.375,436.604 690.125,440.354 688.438,444.292 687.313,448.417 686.75,452.729 686.75,456.854 687.313,461.167 688.438,465.104 
		690.125,469.042 692.375,472.604 694.813,475.979 698,479.167 701.375,481.604 704.938,483.667 708.875,484.979 713.188,486.104 
		717.313,486.479 721.625,486.479 725.75,485.542 730.063,484.417 733.625,482.729 737.375,480.292 740.75,477.667 743.563,474.292 
		745.813,470.917 747.875,466.979 749.188,463.042 750.125,458.917 750.313,454.604 	"/>
	<polygon fill="#A80000" stroke="#000000" stroke-width="1.689" stroke-linejoin="round" points="744.688,454.979 744.688,452.917 
		744.125,450.667 743.75,448.417 743.188,446.167 742.063,444.292 741.313,442.042 739.813,440.354 738.5,438.292 737,436.604 
		735.313,435.292 733.438,434.167 731.375,432.667 729.688,431.729 727.438,430.604 725.188,430.042 722.938,429.479 
		720.688,429.292 718.438,429.292 716.188,429.292 714.313,429.479 711.688,430.042 709.813,430.604 707.563,431.729 705.5,432.667 
		703.625,434.167 701.938,435.292 699.875,436.604 698.75,438.292 697.438,440.354 695.938,442.042 694.813,444.292 
		694.063,446.167 693.5,448.417 692.938,450.667 692.563,452.917 692.563,454.979 692.563,457.229 692.938,459.479 693.5,461.729 
		694.063,463.604 694.813,465.854 695.938,467.542 697.438,469.792 698.75,471.479 699.875,473.167 701.938,474.667 
		703.625,475.979 705.5,477.104 707.563,478.229 709.813,479.167 711.688,479.729 714.313,480.292 716.188,480.479 718.438,480.854 
		720.688,480.479 722.938,480.292 725.188,479.729 727.438,479.167 729.688,478.229 731.375,477.104 733.438,475.979 
		735.313,474.667 737,473.167 738.5,471.479 739.813,469.792 741.313,467.542 742.063,465.854 743.188,463.604 743.75,461.729 
		744.125,459.479 744.688,457.229 	"/>
	<polygon fill="#FFA800" stroke="#000000" stroke-width="1.689" stroke-linejoin="round" points="736.25,472.604 736.25,471.479 
		736.25,470.354 736.25,469.229 735.688,467.917 735.313,466.792 734.75,465.667 734,464.542 733.063,463.417 732.313,462.479 
		730.813,461.354 729.688,460.229 728.563,459.479 726.875,458.542 725.563,457.792 723.875,457.229 721.813,456.292 720.5,455.729 
		718.813,455.542 716.75,454.979 715.063,454.979 713.375,454.604 711.5,454.604 709.813,454.604 708.125,454.604 706.438,454.979 
		704.938,455.167 703.625,455.729 702.125,456.104 700.813,456.854 699.688,457.417 698.75,458.354 697.625,459.104 
		696.875,460.042 696.5,460.792 695.938,461.917 695.75,463.042 695.375,464.167 695.375,465.292 695.75,466.417 695.75,467.542 
		696.313,468.667 696.875,469.792 697.625,470.917 698.563,472.042 699.688,473.167 700.813,474.292 701.938,475.229 
		703.25,476.354 704.75,477.104 706.438,477.667 707.75,478.604 709.438,479.167 711.5,479.729 712.813,480.292 714.875,480.479 
		716.563,480.854 718.25,481.042 719.938,481.042 721.813,481.042 723.5,480.854 725,480.854 726.688,480.292 728.375,479.917 
		729.688,479.354 730.813,478.792 731.938,478.229 733.063,477.104 734,476.542 734.75,475.417 735.313,474.667 735.688,473.542 	
		"/>
	<polygon fill="#FFA800" stroke="#000000" stroke-width="10.5" stroke-linejoin="round" points="726.313,454.604 726.313,454.042 
		726.313,453.292 726.125,452.354 725.75,451.792 725.563,451.042 725.188,450.479 725,449.542 724.438,448.979 723.875,448.417 
		723.313,447.854 722.75,447.667 721.813,447.104 721.25,446.729 720.688,446.542 719.938,446.167 719,445.979 718.438,445.979 
		717.688,445.979 716.75,445.979 716.188,445.979 715.438,446.167 714.875,446.542 713.938,446.729 713.375,447.104 
		712.625,447.667 712.063,447.854 711.5,448.417 710.938,448.979 710.563,449.542 710.375,450.479 709.813,451.042 709.438,451.792 
		709.25,452.354 709.25,453.292 708.875,454.042 708.875,454.604 708.875,455.542 709.25,456.292 709.25,457.229 709.438,457.792 
		709.813,458.542 710.375,459.104 710.563,459.667 710.938,460.229 711.5,460.792 712.063,461.354 712.625,461.917 713.375,462.479 
		713.938,462.854 714.875,463.042 715.438,463.417 716.188,463.417 716.75,463.604 717.688,463.604 718.438,463.604 719,463.417 
		719.938,463.417 720.688,463.042 721.25,462.854 721.813,462.479 722.75,461.917 723.313,461.354 723.875,460.792 724.438,460.229 
		725,459.667 725.188,459.104 725.563,458.542 725.75,457.792 726.125,457.229 726.313,456.292 726.313,455.542 	"/>
	<polygon fill="#FFA800" stroke="#000000" stroke-width="1.689" stroke-linejoin="round" points="723.313,454.604 722.938,452.917 
		722.188,451.229 720.688,449.917 719,448.979 717.313,448.792 715.438,448.979 713.938,449.917 712.625,451.229 711.688,452.917 
		711.5,454.604 711.688,456.667 712.625,458.354 713.938,459.479 715.438,460.229 717.313,460.604 719,460.229 720.688,459.479 
		722.188,458.354 722.938,456.667 723.313,454.604 	"/>
	<polygon stroke="#A89187" stroke-width="1.689" stroke-linejoin="round" points="806,436.417 804.875,437.542 803.563,438.667 
		803.188,439.979 803.188,440.917 804.875,440.354 807.125,440.354 811.063,441.479 817.625,443.729 822.5,446.729 826.438,450.479 
		831.125,455.542 833.75,460.042 835.438,461.729 836,463.417 836.188,466.792 837.688,465.854 839.375,465.292 840.688,465.292 
		842.75,462.479 841.625,459.104 840.125,455.729 838.813,453.292 835.438,449.354 832.25,446.167 828.875,443.729 823.25,439.417 
		818,437.167 812.938,435.854 808.625,435.479 	"/>
	<polygon stroke="#A89187" stroke-width="1.689" stroke-linejoin="round" points="289.814,303.667 302.75,303.667 316.814,306.292 
		330.875,309.667 342.5,314.917 355.814,320.542 367.064,328.792 377.75,337.417 387.875,347.542 396.314,358.604 404.75,370.792 
		410.189,383.729 415.439,395.729 418.814,409.792 420.875,424.229 422.189,439.229 420.875,452.167 418.814,466.417 
		415.439,480.479 410.189,492.854 404.75,505.604 396.314,517.979 387.875,528.667 377.75,538.792 367.064,547.229 355.814,556.042 
		342.5,561.292 330.875,566.729 316.814,570.104 302.75,572.354 289.814,573.479 275,572.354 260.75,570.104 246.689,566.729 
		234.875,561.292 221.939,556.042 210.5,547.229 200,538.792 189.875,528.667 181.064,517.979 173,505.604 167.375,492.854 
		161.939,480.479 158.939,466.417 156.689,452.167 156.689,439.229 156.689,424.229 158.939,409.792 161.939,395.729 
		167.375,383.729 173,370.792 181.064,358.604 189.875,347.542 200,337.417 210.5,328.792 221.939,320.542 234.875,314.917 
		246.689,309.667 260.75,306.292 275,303.667 	"/>
	<polygon stroke="#FFFFFF" stroke-width="1.689" stroke-linejoin="round" points="370.064,439.229 369.875,432.479 368.939,425.542 
		367.625,419.167 365.564,412.604 363.125,406.229 360.314,400.229 356.564,394.417 352.625,388.792 348.5,383.729 343.625,378.854 
		338.564,374.354 332.939,370.417 326.939,367.042 321.125,364.042 314.564,361.604 308.189,359.729 301.625,358.229 
		294.875,357.479 288.125,357.104 281.375,357.479 274.625,358.229 267.875,359.729 261.314,361.604 255.125,364.042 
		248.939,367.042 243.314,370.417 237.689,374.354 232.625,378.854 227.939,383.729 223.439,388.792 219.5,394.417 216.125,400.229 
		212.939,406.229 210.689,412.604 208.814,419.167 207.314,425.542 206.375,432.479 206.189,439.229 206.375,445.979 
		207.314,452.729 208.814,459.479 210.689,465.854 212.939,472.042 216.125,478.229 219.5,484.229 223.439,489.479 227.939,494.917 
		232.625,499.604 237.689,503.917 243.314,507.854 248.939,511.229 255.125,514.417 261.314,516.854 267.875,518.917 
		274.625,520.229 281.375,521.167 288.125,521.354 294.875,521.167 301.625,520.229 308.189,518.917 314.564,516.854 
		321.125,514.417 326.939,511.229 332.939,507.854 338.564,503.917 343.625,499.604 348.5,494.917 352.625,489.479 356.564,484.229 
		360.314,478.229 363.125,472.042 365.564,465.854 367.625,459.479 368.939,452.729 369.875,445.979 370.064,439.229 	"/>
	<polygon fill="#A89187" stroke="#A89187" stroke-width="1.689" stroke-linejoin="round" points="414.125,382.229 404.75,375.292 
		397.625,371.917 389.189,369.667 381.875,368.729 373.814,369.854 363.875,372.104 356.375,370.979 367.814,385.042 
		370.625,380.354 375.689,377.542 381.689,376.604 389.564,376.979 397.064,378.104 403.625,379.792 410.75,383.729 
		416.375,387.667 417.5,387.854 	"/>
	<polygon stroke="#A89187" stroke-width="1.689" stroke-linejoin="round" points="370.064,381.667 369.314,383.354 368.375,385.042 
		368.75,386.729 369.314,387.667 371.75,388.229 373.439,387.292 377.375,386.542 383.564,386.542 389.564,387.292 396.875,388.417 
		403.625,391.042 410.189,393.292 412.064,394.042 413.75,395.729 415.814,399.104 416.939,397.417 418.064,396.292 419.75,395.167 
		420.314,391.604 417.689,388.417 414.689,385.979 412.064,383.729 406.625,381.104 401.939,379.417 397.064,378.292 
		389.189,376.417 382.814,376.979 376.814,377.729 372.125,379.417 	"/>
	<polygon fill="#A89187" stroke="#A89187" stroke-width="1.689" stroke-linejoin="round" points="386.75,340.229 375.689,336.854 
		368.189,336.292 359.375,337.417 352.064,339.667 345.314,343.604 336.875,349.229 329.564,351.479 345.125,359.917 
		346.25,354.292 349.814,349.792 355.25,346.979 362.189,344.167 369.875,342.479 376.25,341.729 384.125,342.479 390.875,344.167 
		392,343.979 	"/>
	<polygon stroke="#A89187" stroke-width="1.689" stroke-linejoin="round" points="346.25,355.792 345.875,357.667 345.689,359.729 
		346.814,361.042 347.564,361.604 348.125,360.292 350.189,358.229 354.125,355.979 361.064,352.042 367.25,350.729 373.25,350.167 
		381.314,350.167 386.939,351.854 389.564,351.854 391.439,352.604 394.625,355.229 395.189,352.979 395.75,351.292 
		397.064,350.167 395.939,346.229 392.564,344.167 389,343.042 385.625,341.917 379.625,341.917 374.564,341.917 369.875,342.479 
		362,343.979 356,346.792 350.939,349.792 347.375,353.167 	"/>
	<polygon fill="#A89187" stroke="#A89187" stroke-width="1.689" stroke-linejoin="round" points="292.064,298.042 282.314,303.479 
		276.314,308.542 270.689,315.292 266.939,322.042 264.689,329.542 262.814,339.667 258.5,346.229 275.75,341.354 272.564,336.667 
		272.375,331.042 274.064,325.042 277.439,318.104 281.75,311.542 285.689,306.479 292.064,301.792 298.064,298.042 
		298.814,296.917 	"/>
	<polygon stroke="#A89187" stroke-width="1.689" stroke-linejoin="round" points="273.689,337.979 275,339.479 276.125,340.792 
		278,341.167 278.939,341.167 278.375,339.479 278.375,336.667 279.689,332.167 281.939,324.854 285.689,319.229 289.625,314.729 
		295.25,309.104 300.5,305.917 302,304.604 304.25,303.667 307.814,303.479 307.25,301.417 306.5,299.729 306.5,298.042 
		302.75,296.167 299.189,296.917 295.814,298.604 292.625,300.292 288.125,304.229 284.75,307.979 281.75,311.917 276.875,318.292 
		274.625,324.292 273.125,330.104 272.564,334.979 	"/>
	<polygon fill="#A89187" stroke="#A89187" stroke-width="1.689" stroke-linejoin="round" points="427.814,435.854 422.189,425.354 
		417.125,419.354 410.375,413.729 403.814,410.167 396.314,407.917 386.375,405.667 379.625,401.729 384.689,419.167 
		389.189,415.792 395.189,415.417 400.814,417.479 407.75,420.854 414.125,424.792 419.189,428.917 423.875,435.479 
		427.814,441.667 428.75,442.229 	"/>
	<polygon stroke="#A89187" stroke-width="1.689" stroke-linejoin="round" points="388.064,416.917 386.75,418.229 385.064,419.354 
		385.064,421.042 385.064,421.979 386.75,421.417 389,421.417 393.689,422.729 401,425.354 406.625,428.729 410.939,433.042 
		416.564,438.667 419.75,443.917 421.439,445.604 422,447.854 422.564,451.792 424.25,450.667 425.939,449.917 427.814,449.917 
		429.875,446.542 428.75,442.792 426.689,439.229 425.564,436.042 421.439,431.542 417.689,428.167 414.125,424.979 
		407.564,420.292 401.564,418.042 395.75,416.354 390.875,415.792 	"/>
	<polygon fill="#A89187" stroke="#A89187" stroke-width="1.689" stroke-linejoin="round" points="151.814,472.042 159.689,480.479 
		166.25,484.792 174.314,488.354 181.625,490.042 189.314,490.042 199.625,489.479 206.939,491.542 197.75,475.979 194,480.479 
		188.375,482.542 182.75,482.167 174.875,481.042 167.939,478.792 161.75,476.354 155.564,471.479 150.5,466.417 149,466.229 	"/>
	<polygon stroke="#A89187" stroke-width="1.689" stroke-linejoin="round" points="194.939,479.167 196.064,477.479 196.814,475.979 
		196.814,474.104 196.625,473.542 195.125,474.292 192.689,475.229 188.189,475.229 180.314,474.854 173.75,472.979 168.5,470.354 
		161.75,466.229 157.25,461.917 155.189,460.792 153.875,458.917 152.75,455.542 151.064,456.854 149.564,457.792 147.875,458.542 
		147.125,462.292 149,465.667 151.625,468.667 153.875,470.917 158.939,474.292 163.439,476.542 167.939,478.604 175.439,481.417 
		181.625,481.979 187.625,481.979 192.314,481.042 	"/>
	<polygon fill="#A89187" stroke="#A89187" stroke-width="1.689" stroke-linejoin="round" points="417.125,486.479 415.25,474.854 
		412.064,467.542 407.564,460.229 402.5,454.979 395.75,450.104 386.939,445.042 382.25,439.229 381.314,457.229 386.75,455.729 
		392.375,457.229 397.064,460.604 402.689,465.854 407.564,471.854 411.314,477.479 413.75,485.354 415.439,492.104 
		416.375,492.854 	"/>
	<polygon stroke="#A89187" stroke-width="1.689" stroke-linejoin="round" points="385.25,456.292 383.564,456.854 381.689,457.792 
		381.125,459.479 380.75,460.229 382.439,460.042 385.064,460.792 388.625,463.604 395.189,468.479 399.314,473.542 402.5,478.604 
		405.5,485.917 407,491.729 408.125,493.979 408.125,496.229 407.189,499.979 409.25,499.604 410.939,499.604 413,500.167 
		415.814,497.354 416,493.417 415.439,489.479 414.875,486.104 412.625,480.854 410.189,476.354 407.564,472.042 402.689,465.667 
		397.625,461.354 392.939,457.979 388.064,456.104 	"/>
	<polygon fill="#A89187" stroke="#A89187" stroke-width="1.689" stroke-linejoin="round" points="391.439,532.979 394.25,521.354 
		394.625,513.479 393.125,505.042 390.689,497.917 386.75,490.979 380.75,482.542 378.5,475.229 370.625,491.542 376.25,492.104 
		380.75,495.667 383.564,501.104 386.75,508.417 388.625,515.542 389.564,521.917 389,529.792 387.5,537.104 387.875,538.042 	"/>
	<polygon stroke="#A89187" stroke-width="1.689" stroke-linejoin="round" points="374.564,492.104 372.689,492.104 371,492.104 
		369.5,492.854 368.939,493.792 370.625,494.354 372.314,496.229 374.939,500.167 378.875,507.292 380.564,513.292 381.125,519.104 
		381.314,527.354 380.189,533.167 380.189,535.417 379.439,538.042 377.189,540.854 379.064,541.417 380.75,541.979 382.25,543.292 
		385.814,542.167 387.5,538.604 388.625,534.854 389.564,531.479 389.564,525.292 389,520.604 388.625,515.542 386.75,507.854 
		383.939,501.854 381.125,496.792 377.375,493.229 	"/>
	<polygon fill="#A89187" stroke="#A89187" stroke-width="1.689" stroke-linejoin="round" points="355.25,559.042 360.875,549.292 
		363.689,541.979 364.814,533.167 364.439,525.667 362.564,517.792 359.375,507.854 359.375,500.167 347,513.479 352.064,516.104 
		355.439,520.792 356.939,526.417 357.689,534.292 357.5,541.979 356.375,548.354 353.189,556.042 350.189,562.229 350.189,563.542 
			"/>
	<polygon stroke="#A89187" stroke-width="1.689" stroke-linejoin="round" points="350.75,515.542 348.689,514.604 347.375,514.042 
		345.689,514.604 344.75,515.167 345.875,516.292 347.564,518.917 348.689,523.042 350.375,530.917 350.189,537.479 
		349.064,543.292 346.814,550.979 344,556.604 343.439,558.854 341.939,560.729 338.75,562.792 340.814,564.104 342.314,565.042 
		343.064,566.729 347,566.354 349.814,563.542 351.875,560.167 353.75,557.354 355.25,551.729 356.375,546.667 357.125,541.979 
		358.064,533.729 356.564,527.542 355.25,521.729 353.189,517.229 	"/>
	<polygon fill="#A89187" stroke="#A89187" stroke-width="1.689" stroke-linejoin="round" points="346.814,311.917 335.375,312.667 
		327.875,314.729 320.189,318.667 314,323.167 308.75,328.979 302.564,337.229 296.375,341.729 313.814,344.542 312.875,338.917 
		315.125,333.292 319.064,328.979 325.064,323.917 331.439,319.792 337.439,316.979 345.125,315.292 352.064,314.354 
		353.189,313.792 	"/>
	<polygon stroke="#A89187" stroke-width="1.689" stroke-linejoin="round" points="313.439,340.229 313.814,342.292 314.375,343.979 
		315.689,345.104 316.625,345.292 316.814,343.604 317.939,341.167 320.75,337.792 326.375,331.792 331.814,328.417 
		337.439,325.979 344.75,323.354 350.939,322.792 353.189,322.042 355.439,322.229 358.814,323.729 358.814,321.667 
		358.814,319.792 359.75,318.104 357.5,314.729 353.75,314.167 349.814,314.167 346.439,314.167 340.439,316.042 335.75,317.729 
		331.439,319.979 324.5,323.917 320,328.417 316.064,332.917 313.439,337.229 	"/>
	<polygon fill="#A89187" stroke="#A89187" stroke-width="1.689" stroke-linejoin="round" points="243.689,307.604 235.439,315.854 
		230.939,322.229 227.564,330.479 225.875,337.792 225.875,345.854 226.439,356.354 224.564,363.667 239.75,354.104 
		235.439,350.354 233.564,345.104 233.564,338.917 234.875,331.042 236.939,323.729 239.75,317.729 244.439,311.354 
		249.314,305.917 249.5,304.792 	"/>
	<polygon stroke="#A89187" stroke-width="1.689" stroke-linejoin="round" points="236.564,351.292 238.25,352.417 239.75,353.542 
		241.625,353.167 242.564,352.979 241.625,351.479 240.875,349.042 240.875,344.167 240.875,336.292 242.75,329.917 
		245.564,324.479 249.5,317.542 253.439,313.229 254.939,311.354 256.814,309.667 260.189,308.542 258.875,307.042 257.75,305.354 
		257.189,303.667 253.25,302.917 250.064,304.792 247.064,307.417 244.814,309.667 241.625,314.917 239.189,319.417 
		237.125,323.917 234.314,331.229 233.75,337.979 233.75,343.979 234.875,349.042 	"/>
	<polygon fill="#A89187" stroke="#A89187" stroke-width="1.689" stroke-linejoin="round" points="168.689,367.979 168.125,379.417 
		169.625,387.292 173,395.542 176.564,401.917 182,407.917 189.5,414.854 193.25,421.417 197.75,403.979 192.125,404.542 
		187.064,401.917 182.75,397.417 178.625,391.042 174.875,384.292 172.625,378.104 171.875,369.854 171.5,362.917 170.939,361.604 	
		"/>
	<polygon stroke="#A89187" stroke-width="1.689" stroke-linejoin="round" points="193.814,403.979 195.5,403.604 197.375,403.604 
		198.5,401.917 199.064,401.354 197.189,400.792 194.939,399.667 191.75,396.292 186.5,390.479 183.689,384.479 181.625,378.667 
		179.75,370.979 179.75,364.792 179.189,362.542 179.375,360.292 181.064,356.542 178.814,356.542 177.125,356.354 175.814,355.417 
		172.439,357.479 171.314,361.417 170.939,365.354 170.75,368.729 172.064,374.729 173.564,379.417 175.25,383.917 178.625,391.604 
		182.564,396.292 186.5,400.792 190.625,403.604 	"/>
	<polygon fill="#A89187" stroke="#A89187" stroke-width="1.689" stroke-linejoin="round" points="171.5,514.417 180.875,520.792 
		188.189,523.979 196.625,525.667 203.939,526.229 211.814,524.542 221.939,521.917 229.25,522.479 217.439,509.354 
		214.625,514.417 209.564,517.229 203.564,517.979 195.689,518.542 188.375,517.792 182,516.292 174.875,512.729 168.689,508.979 
		167.939,508.792 	"/>
	<polygon stroke="#A89187" stroke-width="1.689" stroke-linejoin="round" points="215.189,512.729 216.125,511.042 216.689,509.354 
		216.125,507.667 215.75,506.729 214.625,507.854 212.189,509.354 207.5,510.104 200,511.229 193.25,510.667 187.625,509.354 
		179.939,506.542 174.875,503.167 172.625,502.417 170.939,500.729 169.064,497.354 167.939,499.042 166.814,500.729 
		165.125,501.667 164.75,505.604 167.375,508.417 170.75,510.667 173.189,512.917 178.814,514.979 183.689,516.292 188.375,517.417 
		196.25,518.917 202.814,517.979 208.439,517.229 213.314,514.979 	"/>
	<polygon fill="#A89187" stroke="#A89187" stroke-width="1.689" stroke-linejoin="round" points="205.25,549.292 216.689,551.167 
		224.564,550.979 233,548.917 239.75,545.917 246.5,541.042 254.375,534.667 261.314,532.042 244.814,525.104 244.439,530.729 
		241.064,535.417 236.375,539.167 229.25,542.542 222.314,544.979 216.125,546.479 207.875,546.479 200.75,545.542 199.625,545.917 
			"/>
	<polygon stroke="#A89187" stroke-width="1.689" stroke-linejoin="round" points="244.25,529.229 244.25,527.354 244.25,525.292 
		243.125,524.167 242.189,523.417 241.625,525.292 239.939,527.354 236.375,529.792 229.814,534.292 223.625,536.917 
		217.814,537.667 209.939,538.604 203.939,537.667 201.689,538.042 199.064,537.104 196.25,535.229 195.689,537.104 
		195.125,538.792 194.375,540.479 195.689,544.229 199.064,545.542 203,546.479 206.375,547.229 212.375,546.667 217.439,545.917 
		222.314,544.979 229.814,542.729 235.25,539.354 239.939,535.979 243.689,532.042 	"/>
	<polygon fill="#A89187" stroke="#A89187" stroke-width="1.689" stroke-linejoin="round" points="205.814,328.792 200.189,338.917 
		198.314,346.229 197.189,355.229 197.75,362.542 200,370.417 203.564,380.354 203.939,387.854 215.564,374.167 210.689,372.104 
		206.939,367.417 205.625,361.604 204.5,353.729 204.5,345.854 205.064,339.479 207.875,331.792 211.064,325.417 211.064,324.292 	
		"/>
	<polygon stroke="#A89187" stroke-width="1.689" stroke-linejoin="round" points="211.814,372.479 213.875,373.042 215.564,373.604 
		217.25,373.042 218,372.479 216.689,371.354 215.189,369.104 213.875,364.792 211.814,356.917 211.814,350.167 212.75,344.167 
		214.625,336.292 217.25,331.042 217.814,328.792 219.125,326.729 222.314,324.479 220.25,323.729 218.939,322.604 217.814,320.917 
		213.875,321.104 211.25,323.917 209.375,327.292 207.5,330.479 205.814,336.292 205.064,341.167 204.5,345.854 203.939,354.104 
		205.625,360.479 206.939,366.292 209.564,370.792 	"/>
	<polygon fill="#A89187" stroke="#A89187" stroke-width="1.689" stroke-linejoin="round" points="149.375,420.854 153.5,431.542 
		157.814,438.292 164,444.479 169.625,448.979 176.939,452.167 186.5,455.729 192.689,460.229 189.875,442.604 184.814,445.042 
		178.814,444.854 173.75,442.229 167.375,438.104 161.375,433.229 156.875,428.729 152.939,421.417 149.939,415.229 149,414.104 	
		"/>
	<polygon stroke="#A89187" stroke-width="1.689" stroke-linejoin="round" points="186.125,444.292 187.814,443.167 189.314,442.042 
		189.875,440.542 189.875,439.792 188.189,439.979 185.564,439.792 181.439,437.729 174.314,434.354 169.25,430.042 
		165.314,425.542 160.814,419.167 158.375,413.542 156.875,411.854 156.314,409.604 156.689,405.667 154.625,406.229 
		152.939,406.792 151.064,406.792 148.814,409.792 149.375,413.729 150.5,417.479 151.625,420.479 155,425.542 158.375,429.479 
		161.75,433.042 167.375,438.667 173,441.667 178.625,443.917 183.125,445.042 	"/>
	<polygon fill="#A89187" stroke="#A89187" stroke-width="1.689" stroke-linejoin="round" points="313.439,570.667 317.189,568.417 
		322.439,562.417 327.314,554.917 330.125,548.167 331.25,540.292 332.375,529.792 335.375,522.854 319.064,529.792 
		322.439,534.104 323.564,539.917 322.814,545.917 320.189,553.229 316.814,559.979 313.439,565.604 307.814,571.229 309.5,571.792 
		311,571.417 	"/>
	<polygon stroke="#A89187" stroke-width="1.689" stroke-linejoin="round" points="321.314,532.979 320.189,531.854 318.875,530.354 
		316.814,530.354 316.064,530.354 316.814,532.042 317.189,534.854 316.25,539.167 314.939,547.229 312.125,553.229 308.75,557.917 
		302.75,564.104 299.189,567.854 295.814,569.542 295.25,570.854 291.5,571.417 292.625,573.104 296.564,573.479 297.5,573.479 
		299.75,573.479 302.75,573.104 304.814,573.104 307.25,572.542 311.189,568.417 314,564.104 316.625,559.979 320.564,552.854 
		322.25,546.667 323,540.854 322.814,535.792 	"/>
	<polygon fill="#A89187" stroke="#A89187" stroke-width="1.689" stroke-linejoin="round" points="255.125,570.104 263,568.417 
		270.125,565.042 277.439,559.979 282.5,554.542 286.814,547.604 291.314,538.229 296.939,533.167 278.939,533.167 280.814,538.604 
		279.689,544.417 276.314,549.479 271.25,555.479 265.814,560.542 260.564,564.479 252.875,567.479 250.625,568.417 
		252.689,569.167 	"/>
	<polygon stroke="#A89187" stroke-width="1.689" stroke-linejoin="round" points="280.064,537.104 279.5,535.417 278.564,533.729 
		276.875,533.167 276.125,532.979 276.125,534.292 275.564,537.104 273.125,541.042 268.625,547.792 263.939,552.292 
		258.875,555.479 251.75,559.417 245.939,561.104 244.25,562.229 241.625,562.229 238.064,561.667 238.25,564.479 238.814,565.042 
		238.814,565.229 242.564,566.729 245.564,567.479 248.375,568.979 252.125,568.604 257.375,565.792 261.689,563.354 
		265.625,560.542 271.814,555.479 275.564,550.042 278.939,544.979 280.625,540.292 	"/>
	<polygon fill="#FFA800" stroke="#000000" stroke-width="1.689" stroke-linejoin="round" points="345.125,438.667 344.75,433.042 
		344,427.229 342.5,421.604 340.814,416.354 338.189,411.292 335.375,406.229 332,401.729 328.064,397.417 323.939,393.479 
		319.439,390.104 314.375,387.292 309.314,384.854 303.875,382.792 298.25,381.479 292.625,380.917 287,380.542 281.375,380.917 
		275.75,381.479 270.125,382.792 264.689,384.854 259.625,387.292 254.939,390.104 250.064,393.479 245.939,397.417 
		242.189,401.729 238.814,406.229 235.814,411.292 233.564,416.354 231.5,421.604 230.189,427.229 229.25,433.042 229.064,438.667 
		229.25,444.292 230.189,449.917 231.5,455.542 233.564,460.792 235.814,465.854 238.814,470.917 242.189,475.417 245.939,479.729 
		250.064,483.667 254.939,487.042 259.625,489.854 264.689,492.292 270.125,494.354 275.75,495.667 281.375,496.604 287,496.792 
		292.625,496.604 298.25,495.667 303.875,494.354 309.314,492.292 314.375,489.854 319.439,487.042 323.939,483.667 
		328.064,479.729 332,475.417 335.375,470.917 338.189,465.854 340.814,460.792 342.5,455.542 344,449.917 344.75,444.292 
		345.125,438.667 	"/>
	<polygon fill="#A80000" stroke="#000000" stroke-width="1.689" stroke-linejoin="round" points="333.125,437.729 332.939,433.042 
		332.375,427.792 330.875,423.104 329,418.229 326.75,414.104 323.564,409.792 320.564,405.854 316.814,402.479 312.689,399.667 
		308.375,397.229 303.875,395.167 299.189,393.479 294.125,392.729 289.064,392.354 284.189,392.354 279.125,392.917 
		274.25,394.417 269.564,396.104 265.064,398.354 260.75,401.167 256.814,404.167 253.439,407.917 250.439,411.854 247.814,415.979 
		245.564,420.479 243.875,425.354 243.125,430.417 242.564,435.292 242.564,440.354 243.125,445.417 243.875,450.104 
		245.564,454.979 247.814,459.479 250.439,463.979 253.439,467.917 256.814,471.292 260.75,474.667 265.064,477.479 
		269.564,479.729 274.25,481.417 279.125,482.542 284.189,483.292 289.064,483.292 294.125,483.104 299.189,481.979 
		303.875,480.479 308.375,478.604 312.689,475.979 316.814,472.979 320.564,469.604 323.564,465.854 326.75,461.729 329,457.229 
		330.875,452.729 332.375,447.854 332.939,442.792 333.125,437.729 	"/>
	<polygon stroke="#000000" stroke-width="1.689" stroke-linejoin="round" points="324.125,437.729 323.939,433.229 323,428.917 
		321.875,424.792 320,420.479 317.75,416.917 314.939,413.167 311.564,410.167 307.814,407.354 304.25,405.104 299.939,403.417 
		295.814,402.292 291.314,401.354 286.814,401.354 282.314,401.729 277.814,402.854 273.5,404.167 269.564,406.229 265.814,408.667 
		262.439,411.479 259.439,414.854 256.814,418.604 254.564,422.542 253.25,426.667 252.125,431.167 251.564,435.479 
		251.564,439.979 252.125,444.479 253.25,448.979 254.564,452.917 256.814,456.854 259.439,460.604 262.439,463.979 
		265.814,466.979 269.564,469.229 273.5,471.479 277.814,472.979 282.314,473.729 286.814,474.292 291.314,474.104 295.814,473.542 
		299.939,472.042 304.25,470.354 307.814,468.104 311.564,465.667 314.939,462.479 317.75,458.917 320,455.167 321.875,451.042 
		323,446.729 323.939,442.229 324.125,437.729 	"/>
	<polygon fill="#A80000" stroke="#000000" stroke-width="1.689" stroke-linejoin="round" points="317.939,438.292 317.75,435.854 
		317.375,433.042 316.814,430.417 316.25,428.167 315.125,425.542 313.814,423.292 312.314,421.417 311,419.354 308.939,417.479 
		307.25,415.417 305,414.104 302.75,412.604 300.875,411.479 298.25,410.729 295.814,409.792 293.189,409.229 290.75,408.667 
		288.125,408.667 285.689,408.667 282.875,409.229 280.625,409.792 278,410.729 275.564,411.479 273.125,412.604 270.875,414.104 
		269,415.417 266.939,417.479 265.25,419.354 263.564,421.417 262.25,423.292 261.125,425.542 260,428.167 259.064,430.417 
		258.5,433.042 258.5,435.854 258.314,438.292 258.5,440.542 258.5,443.167 259.064,445.604 260,448.229 261.125,450.667 
		262.25,452.917 263.564,454.979 265.25,457.229 266.939,458.917 269,460.604 270.875,462.292 273.125,463.604 275.564,464.542 
		278,465.667 280.625,466.417 282.875,466.979 285.689,467.354 288.125,467.542 290.75,467.354 293.189,466.979 295.814,466.417 
		298.25,465.667 300.875,464.542 302.75,463.604 305,462.292 307.25,460.604 308.939,458.917 311,457.229 312.314,454.979 
		313.814,452.917 315.125,450.667 316.25,448.229 316.814,445.604 317.375,443.167 317.75,440.542 	"/>
	<polygon fill="#FFA800" stroke="#000000" stroke-width="1.689" stroke-linejoin="round" points="308.189,458.354 308.375,456.854 
		308.375,455.729 308.189,454.417 307.814,452.917 307.25,451.792 306.689,450.479 305.939,448.979 304.814,447.854 
		303.689,446.729 302.189,445.417 300.875,444.292 299.375,443.167 297.689,442.042 295.814,441.479 294.125,440.542 
		292.064,439.792 290.189,439.229 288.125,438.667 286.25,438.292 284.189,438.104 282.314,437.729 280.064,437.542 278,437.542 
		276.125,437.729 274.25,438.292 272.564,438.667 270.875,438.854 269.189,439.417 267.875,440.354 266.375,441.104 265.25,442.042 
		264.125,443.167 263.375,443.917 262.814,445.042 261.875,446.167 261.689,447.667 261.689,448.792 261.689,449.917 
		261.689,451.229 261.875,452.729 262.814,453.854 263.375,455.167 263.939,456.667 265.064,457.792 266.189,459.104 267.5,460.229 
		269,461.354 270.689,462.479 272.375,463.417 274.064,464.167 275.75,465.104 277.814,465.854 279.689,466.417 281.75,466.979 
		283.625,467.354 285.689,467.542 287.939,467.917 289.814,467.917 291.875,467.917 293.75,467.542 295.814,467.542 297.5,466.979 
		299.189,466.417 300.5,466.229 302,465.292 303.314,464.542 304.814,463.604 305.564,462.854 306.5,461.729 307.25,460.604 
		307.814,459.479 	"/>
	<polygon fill="#FFA800" stroke="#000000" stroke-width="10.5" stroke-linejoin="round" points="297.125,437.729 296.939,437.167 
		296.939,436.042 296.939,435.292 296.564,434.354 296,433.604 295.814,432.667 295.25,432.104 294.689,431.167 294.125,430.604 
		293.564,430.042 292.625,429.479 292.064,428.917 291.314,428.729 290.375,428.354 289.814,428.167 288.689,427.792 
		287.939,427.792 287,427.604 286.25,427.792 285.314,427.792 284.564,428.167 283.625,428.354 282.875,428.729 281.939,428.917 
		281.375,429.479 280.625,430.042 280.064,430.604 279.5,431.167 278.939,432.104 278.564,432.667 278,433.604 277.814,434.354 
		277.439,435.292 277.25,436.042 277.25,437.167 276.875,437.729 277.25,438.667 277.25,439.792 277.439,440.542 277.814,441.479 
		278,442.042 278.564,443.167 278.939,443.729 279.5,444.292 280.064,445.042 280.625,445.604 281.375,446.167 281.939,446.729 
		282.875,447.104 283.625,447.292 284.564,447.667 285.314,447.854 286.25,447.854 287,447.854 287.939,447.854 288.689,447.854 
		289.814,447.667 290.375,447.292 291.314,447.104 292.064,446.729 292.625,446.167 293.564,445.604 294.125,445.042 
		294.689,444.292 295.25,443.729 295.814,443.167 296,442.042 296.564,441.479 296.939,440.542 296.939,439.792 296.939,438.667 	
		"/>
	<polygon fill="#FFA800" stroke="#000000" stroke-width="1.689" stroke-linejoin="round" points="293.564,437.729 293.189,436.042 
		292.439,434.167 290.939,432.667 289.625,431.542 287.564,430.979 285.689,430.979 284,431.542 282.314,432.667 280.814,434.167 
		280.064,436.042 279.689,437.729 280.064,439.792 280.814,441.479 282.314,443.167 284,443.917 285.689,444.479 287.564,444.479 
		289.625,443.917 290.939,443.167 292.439,441.479 293.189,439.792 293.564,437.729 	"/>
</g>
</svg>
